<?xml version="1.0" encoding="UTF-8" standalone="no"?>
<!-- Created with Inkscape (http://www.inkscape.org/) -->

<svg
   version="1.1"
   id="svg2"
   xml:space="preserve"
   width="234.03857"
   height="434.01761"
   viewBox="0 0 234.03857 434.01759"
   xmlns="http://www.w3.org/2000/svg"
   xmlns:svg="http://www.w3.org/2000/svg"><defs
     id="defs6" /><g
     id="g8"
     transform="matrix(1.3333333,0,0,-1.3333333,-309.16191,625.32517)"><path
       style="fill:#000000;stroke-width:0.75006"
       d="m 247.37406,143.98068 c -0.27505,0.275 -0.50017,4.49375 -0.50017,9.375 v 8.875 h -7.12617 -7.12616 v 2.24999 2.25018 h 7.12616 7.12617 v 8.62501 8.62501 h -7.12617 -7.12616 v 2.25017 2.25017 h 7.12616 7.12617 v 8.62502 8.62501 h -7.12617 -7.12616 v 2.25017 2.25017 h 7.12616 7.12617 v 8.62501 8.62502 h -7.12617 -7.12616 v 2.25017 2.25017 h 7.12616 7.12617 v 8.62501 8.62501 h -7.12617 -7.12616 v 2.25018 2.25017 h 7.12616 7.12617 v 8.62501 8.62501 h -7.12617 -7.12616 v 2.25017 2.25017 h 7.12616 7.12617 v 8.62502 8.62501 h -7.12617 -7.12616 v 2.25017 2.25017 h 7.12616 7.12617 v 8.62501 8.62502 h -7.12617 -7.12616 v 2.25017 2.25017 h 7.12616 7.12617 v 8.62501 8.62502 h -7.12617 -7.12616 v 2.25017 2.25017 h 7.12616 7.12617 v 8.62501 8.62501 h -7.12617 -7.12616 v 2.25017 2.25018 h 7.12616 7.12617 v 8.62501 8.62501 h -7.12617 -7.12616 v 2.25017 2.25017 h 7.12616 7.12617 v 8.62502 8.62501 h -7.12617 -7.12616 v 2.25017 2.25017 h 7.12616 7.12617 v 8.62501 8.62502 h -7.12617 -7.12616 v 2.25017 2.25017 h 7.12616 7.12617 v 8.62501 8.62501 h -7.50123 -7.50122 v 2.25018 2.25017 h 7.50122 7.50123 v 3.57906 c 0,3.48647 0.16076,3.73897 6.20834,9.75414 l 6.20835,6.17506 65.99105,-0.19163 65.99104,-0.19163 0.2121,-8.43748 0.2121,-8.43748 h 7.47665 7.47665 v -2.25017 -2.25017 h -7.50113 -7.50124 v -8.62965 -8.625 h 7.87629 7.87628 v -2.25017 -2.25017 h -7.87628 -7.87629 v -8.62501 -8.62502 h 7.87629 7.87628 v -2.25017 -2.25017 h -7.87628 -7.87629 v -8.62501 -8.62501 h 7.87629 7.87628 v -2.25018 -2.25017 h -7.87628 -7.87629 v -8.62501 -8.62501 h 7.87629 7.87628 v -2.25017 -2.25017 h -7.87628 -7.87629 v -8.62502 -8.62501 h 7.87629 7.87628 v -2.25017 -2.25017 h -7.87628 -7.87629 v -8.62501 -8.62502 h 7.87629 7.87628 v -2.25017 -2.25017 h -7.87628 -7.87629 v -8.62501 -8.62502 h 7.87629 7.87628 v -2.25017 -2.25017 h -7.87628 -7.87629 v -8.62501 -8.62501 h 7.87629 7.87628 v -2.25017 -2.25018 h -7.87627 -7.8763 v -8.62208 -8.625 h 7.87629 7.87628 v -2.25017 -2.25017 h -7.87628 -7.87629 v -8.62501 -8.62502 h 7.87629 7.87628 v -2.25017 -2.25017 h -7.87627 -7.8763 v -8.62429 -8.625 h 7.87629 7.87628 v -2.25017 -2.25017 h -7.87628 -7.87629 v -8.62501 -8.62502 h 7.87629 7.87628 v -2.25017 -2.25017 h -7.87628 -7.87629 v -8.62501 -8.62501 h 7.87629 7.87628 v -2.25018 -2.25017 h -7.87627 -7.8763 v -10.49892 -10.5 h -71.88682 c -39.53777,0 -72.11188,0.225 -72.38692,0.5 z m 142.02337,162.25 v 160.5 h -64.6805 -64.68051 l -5.45603,-5.41873 -5.45604,-5.41873 V 300.81195 145.73068 h 70.13654 70.13654 z M 251.18718,162.72739 c 1.19868,0.48373 1.23076,5.2806 0.038,5.67816 -0.56288,0.18755 -0.42216,0.48302 0.37513,0.78897 1.0802,0.41447 1.27487,-0.0129 1.27487,-2.79995 0,-1.92959 0.38753,-3.44541 0.93765,-3.66725 0.51585,-0.20806 -0.075,-0.37828 -1.31278,-0.37828 -1.23768,0 -1.82827,0.17024 -1.31283,0.37835 z m 7.41749,0.62832 c 0.27341,0.71221 -0.0104,1.12491 -0.7736,1.12491 -1.6212,0 -1.51803,1.24093 0.29481,3.54536 l 1.50017,1.9071 v -2.3512 c 0,-1.37481 0.38935,-2.35585 0.93764,-2.36263 0.62705,-0.008 0.56471,-0.25615 -0.18753,-0.75006 -0.99998,-0.65652 -0.99998,-0.82074 0,-1.47691 0.91614,-0.6014 0.81625,-0.74063 -0.53918,-0.74998 -1.17352,-0.008 -1.53699,0.32026 -1.23231,1.11341 z m 0.27127,3.04414 c 0,0.64296 -0.33756,0.96069 -0.75027,0.70579 -0.41268,-0.25494 -0.75026,-0.78112 -0.75026,-1.16918 0,-0.38806 0.33756,-0.70579 0.75026,-0.70579 0.41268,0 0.75027,0.52622 0.75027,1.16918 z m 108.58037,-3.67257 c 1.19867,0.48374 1.23075,5.2806 0.038,5.67816 -0.56288,0.18755 -0.42216,0.48302 0.37514,0.78897 1.08019,0.41448 1.27486,-0.0129 1.27486,-2.79995 0,-1.92959 0.38753,-3.44541 0.93765,-3.66725 0.51585,-0.20805 -0.075,-0.37828 -1.31278,-0.37828 -1.23768,0 -1.82827,0.17024 -1.31282,0.37835 z m 5.80912,0.26031 c -0.28653,0.46338 -0.31838,1.04529 -0.0708,1.29305 0.2476,0.24755 0.45023,0.0563 0.45023,-0.42483 0,-0.48124 0.67517,-0.87501 1.50016,-0.87501 1.11665,0 1.50017,0.50016 1.50017,1.95636 0,1.71217 -0.23398,1.89746 -1.8753,1.48584 -1.62849,-0.40877 -1.87529,-0.22205 -1.87529,1.41871 0,1.6547 0.30289,1.87533 2.43781,1.77679 2.26902,-0.10459 2.2949,-0.13401 0.37513,-0.42483 -2.46625,-0.37342 -2.79107,-2.23267 -0.37513,-2.14735 1.38861,0.049 1.68791,-0.33947 1.68791,-2.19055 0,-1.73288 -0.37149,-2.30294 -1.61682,-2.4804 -0.88953,-0.12672 -1.8516,0.14886 -2.13806,0.61222 z m -122.07826,21.48968 c 1.19867,0.48374 1.23075,5.2806 0.038,5.67816 -0.56288,0.18755 -0.42216,0.48302 0.37513,0.78897 1.08019,0.41448 1.27487,-0.0129 1.27487,-2.79995 0,-1.92959 0.38752,-3.44541 0.93765,-3.66725 0.51585,-0.20806 -0.075,-0.37842 -1.31279,-0.37842 -1.23768,0 -1.82826,0.17024 -1.31282,0.37849 z m 5.78261,0.30319 c -0.27194,0.43982 -0.29186,1.00245 -0.0443,1.24985 0.2476,0.24756 0.45023,0.0563 0.45023,-0.42483 0,-0.48123 0.67516,-0.875 1.50016,-0.875 1.79692,0 1.99232,1.90031 0.29296,2.851 -1.10972,0.62082 -1.10972,0.71293 0,1.13883 0.66386,0.25477 1.20742,0.81146 1.20742,1.23665 0,1.00424 -2.75899,1.00817 -3.25662,0.004 -0.20972,-0.42269 -0.29426,-0.33844 -0.18787,0.1875 0.25226,1.247 2.63212,1.69361 3.64268,0.6833 0.55158,-0.55157 0.53299,-1.09671 -0.0618,-1.81321 -0.62267,-0.75005 -0.62777,-1.24735 -0.0186,-1.8564 0.45752,-0.45731 0.62886,-1.36052 0.3806,-2.00705 -0.51148,-1.33268 -3.15563,-1.58686 -3.90462,-0.37556 z m 110.48653,-0.30319 c 1.19867,0.48374 1.23075,5.2806 0.038,5.67816 -0.56288,0.18755 -0.42216,0.48302 0.37514,0.78897 1.08019,0.41448 1.27486,-0.0129 1.27486,-2.79995 0,-1.92959 0.38753,-3.44541 0.93765,-3.66725 0.51585,-0.20806 -0.075,-0.37842 -1.31278,-0.37842 -1.23768,0 -1.82827,0.17024 -1.31282,0.37849 z m 5.97011,-0.0284 c -0.86438,0.8643 -0.60663,5.1568 0.36857,6.13166 1.05175,1.05136 2.85049,1.1988 2.85049,0.23333 0,-0.36664 -0.57783,-0.61975 -1.28398,-0.56263 -0.70615,0.0573 -1.39517,-0.43055 -1.53115,-1.08386 -0.17125,-0.82252 0.28118,-1.16846 1.47136,-1.1249 2.33902,0.0856 2.51474,-3.57322 0.18766,-3.90626 -0.84213,-0.12052 -1.7703,0.0201 -2.06295,0.31266 z m 3.21906,1.83677 c 0,1.0735 -0.40393,1.47726 -1.30403,1.30376 -1.9555,-0.37663 -2.17351,-2.85885 -0.25114,-2.85885 1.07363,0 1.55522,0.48159 1.55517,1.55509 z m -125.45815,19.94173 c 1.19867,0.48374 1.23076,5.2806 0.038,5.67816 -0.56288,0.18755 -0.42216,0.48302 0.37513,0.78897 1.08019,0.41448 1.27487,-0.0129 1.27487,-2.79995 0,-1.92959 0.38752,-3.44541 0.93765,-3.66725 0.51585,-0.20806 -0.075,-0.37842 -1.31279,-0.37842 -1.23768,0 -1.82826,0.17024 -1.31282,0.37849 z m 5.4384,0.12256 c 0,0.34059 0.84395,1.41194 1.87529,2.38083 1.03134,0.9689 1.8753,2.20876 1.8753,2.75569 0,1.16489 -2.69811,1.3516 -3.25661,0.22551 -0.20972,-0.42268 -0.2958,-0.33844 -0.19128,0.1875 0.10451,0.52586 0.92452,1.06422 1.82243,1.19631 2.65072,0.38984 2.85888,-1.89745 0.4105,-4.50862 l -2.16039,-2.30408 2.06268,0.36985 c 1.13451,0.20335 2.06268,0.079 2.06268,-0.27627 0,-0.3553 -1.01274,-0.64617 -2.25043,-0.64617 -1.23768,0 -2.25042,0.27867 -2.25017,0.61945 z m 110.83074,-0.12256 c 1.19867,0.48374 1.23075,5.2806 0.0379,5.67816 -0.56288,0.18755 -0.42216,0.48302 0.37514,0.78897 1.08019,0.41448 1.27486,-0.0129 1.27486,-2.79995 0,-1.92959 0.38753,-3.44541 0.93765,-3.66725 0.51585,-0.20806 -0.075,-0.37842 -1.31278,-0.37842 -1.23768,0 -1.82827,0.17024 -1.31282,0.37849 z m 7.22835,1.37838 c 0.13653,1.23736 0.5009,2.84065 0.80969,3.5625 0.39409,0.92142 0.22077,1.31233 -0.58148,1.31233 -0.6285,0 -1.31314,-0.42197 -1.5213,-0.93748 -0.22603,-0.56013 -0.40211,-0.40912 -0.43748,0.37485 -0.044,0.97461 0.52679,1.31233 2.21762,1.31233 2.12976,0 2.21835,-0.10902 1.37002,-1.68753 -0.49872,-0.9282 -1.17644,-2.7 -1.506,-3.9375 l -0.59897,-2.25017 z m -123.49749,20.3717 c 1.19868,0.48374 1.23076,5.28061 0.038,5.67816 -0.56288,0.18755 -0.42216,0.48302 0.37513,0.78897 1.0802,0.41448 1.27487,-0.0129 1.27487,-2.79995 0,-1.92959 0.38753,-3.44541 0.93765,-3.66725 0.51585,-0.20805 -0.075,-0.37842 -1.31278,-0.37842 -1.23768,0 -1.82827,0.17024 -1.31283,0.37849 z m 6.00099,0 c 1.19867,0.48374 1.23075,5.28061 0.038,5.67816 -0.56288,0.18755 -0.42216,0.48302 0.37514,0.78897 1.08019,0.41448 1.27486,-0.0129 1.27486,-2.79995 0,-1.92959 0.38753,-3.44541 0.93765,-3.66725 0.51585,-0.20805 -0.075,-0.37842 -1.31278,-0.37842 -1.23768,0 -1.82827,0.17024 -1.31282,0.37849 z m 110.26815,0 c 1.19867,0.48374 1.23075,5.28061 0.0379,5.67816 -0.56288,0.18755 -0.42216,0.48302 0.37514,0.78897 1.08019,0.41448 1.27486,-0.0129 1.27486,-2.79995 0,-1.92959 0.38753,-3.44541 0.93765,-3.66725 0.51585,-0.20805 -0.075,-0.37842 -1.31278,-0.37842 -1.23768,0 -1.82827,0.17024 -1.31282,0.37849 z m 5.97474,0.0229 c -0.19544,0.33297 -0.31168,1.95529 -0.25832,3.60538 0.0865,2.67429 0.30074,2.99987 1.97227,2.99987 1.72255,0 1.8753,-0.275 1.8753,-3.37508 0,-2.88491 -0.23477,-3.40828 -1.61682,-3.60538 -0.88953,-0.12671 -1.77687,0.042 -1.97227,0.37485 z m 3.07141,1.54295 c -0.13904,0.72186 -0.74989,1.31234 -1.35762,1.31234 -0.60772,0 -1.21836,-0.59048 -1.35762,-1.31234 -0.17737,-0.92106 0.22765,-1.31233 1.35762,-1.31233 1.12977,0 1.5348,0.39163 1.35762,1.31233 z m 0.14281,3.56251 c 0,0.6251 -0.66678,1.1249 -1.50017,1.1249 -0.83338,0 -1.50016,-0.50015 -1.50016,-1.1249 0,-0.62511 0.66678,-1.12491 1.50016,-1.12491 0.83339,0 1.50017,0.50016 1.50017,1.12491 z m -125.45815,16.6217 c 1.19867,0.48374 1.23075,5.2806 0.038,5.67816 -0.56288,0.18755 -0.42216,0.48302 0.37514,0.78897 1.08019,0.41448 1.27486,-0.0129 1.27486,-2.79995 0,-1.92959 0.38753,-3.44541 0.93765,-3.66725 0.51585,-0.20805 -0.075,-0.37842 -1.31278,-0.37842 -1.23768,0 -1.82827,0.17024 -1.31282,0.37849 z m 6.33853,0.40341 c -2.33246,2.33228 0.0185,7.88867 2.47536,5.85002 1.90884,-1.58401 1.04775,-6.75001 -1.12503,-6.75001 -0.24754,0 -0.85526,0.40483 -1.35033,0.89999 z m 2.47536,2.91241 c 0,1.77786 -0.34457,2.56255 -1.12503,2.56255 -1.20086,0 -1.9041,-2.74105 -1.18409,-4.61691 0.76083,-1.98242 2.30912,-0.60475 2.30912,2.05436 z m 107.45519,-3.31582 c 1.19867,0.48374 1.23075,5.2806 0.0379,5.67816 -0.56288,0.18755 -0.42216,0.48302 0.37513,0.78897 1.08019,0.41448 1.27487,-0.0129 1.27487,-2.79995 0,-1.92959 0.38753,-3.44541 0.93765,-3.66725 0.51585,-0.20805 -0.075,-0.37842 -1.31278,-0.37842 -1.23768,0 -1.82827,0.17024 -1.31282,0.37849 z m 6.18851,0.16996 c 0,0.36664 0.57783,0.61975 1.28398,0.56263 0.70615,-0.0573 1.39517,0.43054 1.53115,1.08385 0.17125,0.82253 -0.28118,1.16847 -1.47136,1.12491 -2.08346,-0.0762 -2.9194,3.04236 -1.01165,3.77438 2.6981,1.0353 4.74252,-4.08857 2.51838,-6.31226 -1.05176,-1.05136 -2.8505,-1.1988 -2.8505,-0.23351 z m 2.62556,4.58335 c 0,0.60761 -0.59058,1.21808 -1.31278,1.35731 -0.92088,0.17735 -1.31278,-0.22761 -1.31278,-1.35731 0,-1.12955 0.39154,-1.53475 1.31278,-1.35732 0.72183,0.13902 1.31278,0.7497 1.31278,1.35732 z m -124.89555,17.16666 c 0,0.36664 0.57783,0.61975 1.28398,0.56263 0.70615,-0.0573 1.39517,0.43055 1.53115,1.08386 0.17125,0.82252 -0.28118,1.16846 -1.47136,1.1249 -2.08346,-0.0762 -2.9194,3.04236 -1.01166,3.77439 2.69811,1.0353 4.74253,-4.08858 2.51838,-6.31226 -1.05175,-1.05137 -2.85049,-1.19881 -2.85049,-0.23352 z m 2.62556,4.58335 c 0,0.60761 -0.59059,1.21808 -1.31278,1.35731 -0.92088,0.17735 -1.31278,-0.22761 -1.31278,-1.35731 0,-1.12955 0.39154,-1.53475 1.31278,-1.35732 0.72183,0.13902 1.31278,0.7497 1.31278,1.35732 z m 112.89358,-4.63072 c 0,0.34059 0.84396,1.41193 1.8753,2.38083 1.03134,0.9689 1.8753,2.20876 1.8753,2.75568 0,1.16489 -2.69811,1.35161 -3.25662,0.22552 -0.20972,-0.42268 -0.29579,-0.33844 -0.19128,0.1875 0.10452,0.52587 0.92452,1.06422 1.82244,1.19631 2.65071,0.38985 2.85888,-1.89745 0.41049,-4.50862 l -2.16038,-2.30408 2.06268,0.36985 c 1.13451,0.20335 2.06268,0.079 2.06268,-0.27627 0,-0.3553 -1.01275,-0.64617 -2.25043,-0.64617 -1.23768,0 -2.25043,0.27867 -2.25018,0.61945 z m 6.90112,0.28073 c -2.33245,2.33228 0.0185,7.88866 2.47537,5.85001 1.90883,-1.584 1.04774,-6.75001 -1.12504,-6.75001 -0.24754,0 -0.85525,0.40484 -1.35033,0.9 z m 2.47537,2.9124 c 0,1.77786 -0.34457,2.56255 -1.12504,2.56255 -1.20086,0 -1.90409,-2.74105 -1.18409,-4.6169 0.76084,-1.98242 2.30913,-0.60476 2.30913,2.05435 z m -125.10958,18.45702 c -0.19543,0.33297 -0.31168,1.95529 -0.25831,3.60538 0.0865,2.67428 0.30074,2.99987 1.97227,2.99987 1.72255,0 1.8753,-0.27501 1.8753,-3.37508 0,-2.88492 -0.23478,-3.40828 -1.61683,-3.60538 -0.88916,-0.12671 -1.77686,0.042 -1.97227,0.37485 z m 3.07142,1.54295 c -0.13904,0.72186 -0.7499,1.31233 -1.35762,1.31233 -0.60772,0 -1.21836,-0.59047 -1.35762,-1.31233 -0.17738,-0.92106 0.22764,-1.31233 1.35762,-1.31233 1.12977,0 1.5348,0.39163 1.35762,1.31233 z m 0.1428,3.56251 c 0,0.6251 -0.66678,1.1249 -1.50016,1.1249 -0.83339,0 -1.50017,-0.50015 -1.50017,-1.1249 0,-0.62511 0.66678,-1.12491 1.50017,-1.12491 0.83338,0 1.50016,0.50016 1.50016,1.12491 z M 366.89367,293.35 c 0,0.34059 0.84396,1.41193 1.8753,2.38083 1.03134,0.9689 1.8753,2.20876 1.8753,2.75568 0,1.1649 -2.69811,1.35161 -3.25662,0.22552 -0.20972,-0.42268 -0.29579,-0.33843 -0.19128,0.1875 0.10452,0.52587 0.92452,1.06422 1.82244,1.19631 2.65071,0.38985 2.85888,-1.89745 0.41049,-4.50862 l -2.16038,-2.30408 2.06268,0.36985 c 1.13451,0.20335 2.06268,0.079 2.06268,-0.27627 0,-0.3553 -1.01275,-0.64617 -2.25043,-0.64617 -1.23768,0 -2.25043,0.27867 -2.25018,0.61945 z m 6.56358,-0.12256 c 1.19867,0.48374 1.23075,5.2806 0.038,5.67816 -0.56289,0.18755 -0.42217,0.48302 0.37513,0.78897 1.08019,0.41447 1.27486,-0.0129 1.27486,-2.79995 0,-1.92959 0.38753,-3.44541 0.93765,-3.66725 0.51585,-0.20806 -0.075,-0.37842 -1.31278,-0.37842 -1.23768,0 -1.82827,0.17023 -1.31282,0.37849 z m -84.14778,19.43187 c -1.68427,1.68397 -1.46152,2.30979 0.26567,0.74684 1.86874,-1.69111 4.11625,-1.24236 4.41964,0.88251 0.18263,1.27913 -0.37769,1.96135 -2.40501,2.92811 -2.81659,1.34303 -3.67119,2.58861 -2.99121,4.36025 0.91687,2.38869 5.68892,2.28373 6.62125,-0.14544 0.43528,-1.13419 0.355,-1.13169 -0.92744,0.0286 -1.67224,1.51297 -3.42723,1.63256 -4.52675,0.30779 -1.04227,-1.25556 -0.31639,-2.29301 2.67806,-3.82696 2.38058,-1.21952 2.78597,-1.91567 2.45167,-4.21039 -0.34474,-2.36691 -3.65537,-3.00201 -5.58626,-1.07136 z m 8.19779,4.78797 c 0,4.86227 0.21841,6.03377 1.12503,6.0352 0.92234,10e-4 1.08056,-1.01317 0.87823,-5.625 -0.24101,-5.4947 -0.20492,-5.62675 1.53771,-5.62675 0.9814,0 2.23184,0.42197 2.77831,0.93748 0.80203,0.75648 0.92817,0.72043 0.65402,-0.1875 -0.22068,-0.73042 -1.50344,-1.20238 -3.65686,-1.34589 l -3.31677,-0.22094 z m 8.62644,-5.48794 c 0,0.26324 1.35033,1.94315 3.00033,3.73325 3.06339,3.32296 3.46733,4.39032 2.33646,6.17443 -0.88114,1.39015 -3.48592,0.72863 -3.3576,-0.85252 0.0573,-0.70615 -0.19586,-1.28377 -0.56251,-1.28377 -1.34122,0 -0.62194,2.91312 0.83338,3.37508 5.00782,1.589 6.02563,-2.85065 1.68791,-7.36238 l -2.81294,-2.92561 2.81294,0.3059 c 1.96425,0.21359 2.81295,0.0118 2.81295,-0.66866 0,-0.65474 -1.10717,-0.97426 -3.37546,-0.97426 -1.85671,0 -3.37546,0.21539 -3.37546,0.47854 z m 9.75161,0.64652 c 0,0.61869 0.33756,1.12491 0.75027,1.12491 0.41268,0 0.75026,-0.50622 0.75026,-1.12491 0,-0.61868 -0.33756,-1.1249 -0.75026,-1.1249 -0.41268,0 -0.75027,0.50622 -0.75027,1.1249 z m 8.25134,-0.64652 c 0,0.26324 1.35033,1.94315 3.00033,3.73325 3.0634,3.32296 3.46733,4.39032 2.33647,6.17443 -0.88114,1.39015 -3.48592,0.72863 -3.3576,-0.85252 0.0573,-0.70615 -0.19586,-1.28377 -0.56252,-1.28377 -1.34121,0 -0.62194,2.91312 0.83339,3.37508 5.00781,1.589 6.02563,-2.85065 1.68791,-7.36238 l -2.81294,-2.92561 2.81294,0.3059 c 1.96425,0.21359 2.81295,0.0118 2.81295,-0.66866 0,-0.65474 -1.10717,-0.97426 -3.37546,-0.97426 -1.85671,0 -3.37547,0.21539 -3.37547,0.47854 z m 9.75162,0.75113 c 0,1.02673 0.20003,1.12026 0.9001,0.42018 1.26247,-1.26235 4.35073,-1.13847 4.35073,0.17446 0,0.59084 -0.67298,1.28806 -1.49579,1.54903 -2.54499,0.80753 -3.93954,2.62537 -2.93908,3.83086 0.98103,1.18202 5.18492,1.43656 5.18492,0.31428 0,-0.40555 -0.96135,-0.53907 -2.15929,-0.29944 -3.2763,0.6551 -3.59201,-1.00495 -0.47393,-2.4915 1.9792,-0.94391 2.63905,-1.69432 2.47791,-2.81959 -0.30108,-2.10309 -5.84542,-2.74676 -5.84542,-0.67866 z m -81.47372,3.64521 c 0.13653,1.23736 0.5009,2.84065 0.80968,3.5625 0.39409,0.92142 0.22077,1.31233 -0.58147,1.31233 -0.6285,0 -1.31315,-0.42197 -1.52131,-0.93748 -0.22603,-0.56013 -0.40211,-0.40912 -0.43747,0.37485 -0.044,0.97461 0.52679,1.31233 2.21762,1.31233 2.12976,0 2.21834,-0.10902 1.37001,-1.68754 -0.49871,-0.9282 -1.17643,-2.69999 -1.50599,-3.93749 l -0.59898,-2.25017 z m 114.47918,-1.25557 c 0,0.34059 0.84396,1.41193 1.8753,2.38083 1.03134,0.9689 1.87529,2.20876 1.87529,2.75569 0,1.16489 -2.6981,1.3516 -3.25661,0.22552 -0.20972,-0.42269 -0.29579,-0.33844 -0.19128,0.1875 0.10451,0.52586 0.92452,1.06421 1.82243,1.1963 2.65072,0.38985 2.85888,-1.89745 0.4105,-4.50862 l -2.16038,-2.30408 2.06268,0.36985 c 1.13451,0.20335 2.06268,0.079 2.06268,-0.27627 0,-0.3553 -1.01275,-0.64617 -2.25043,-0.64617 -1.23768,0 -2.25043,0.27867 -2.25018,0.61945 z m 6.00099,0 c 0,0.34059 0.84395,1.41193 1.87529,2.38083 1.03134,0.9689 1.8753,2.20876 1.8753,2.75569 0,1.16489 -2.69811,1.3516 -3.25661,0.22552 -0.20972,-0.42269 -0.2958,-0.33844 -0.19129,0.1875 0.10452,0.52586 0.92453,1.06421 1.82244,1.1963 2.65072,0.38985 2.85888,-1.89745 0.41049,-4.50862 l -2.16038,-2.30408 2.06268,0.36985 c 1.13451,0.20335 2.06268,0.079 2.06268,-0.27627 0,-0.3553 -1.01274,-0.64617 -2.25043,-0.64617 -1.23768,0 -2.25042,0.27867 -2.25017,0.61945 z m -121.7384,21.59911 c -0.86437,0.86429 -0.60663,5.15679 0.36857,6.13165 1.05175,1.05136 2.85049,1.19881 2.85049,0.23333 0,-0.36664 -0.57783,-0.61975 -1.28398,-0.56263 -0.70615,0.0573 -1.39517,-0.43054 -1.53115,-1.08385 -0.17125,-0.82253 0.28118,-1.16846 1.47136,-1.12491 2.33902,0.0856 2.51474,-3.57321 0.18766,-3.90626 -0.84213,-0.12052 -1.7703,0.0201 -2.06295,0.31267 z m 3.21906,1.83676 c 0,1.92209 -2.48265,1.70396 -2.85924,-0.2511 -0.17336,-0.9 0.2306,-1.30376 1.30403,-1.30376 1.07363,0 1.55521,0.48159 1.55521,1.55486 z m 112.51852,-1.68575 c 0,0.34059 0.84396,1.41193 1.8753,2.38083 1.03134,0.9689 1.8753,2.20876 1.8753,2.75568 0,1.16489 -2.69811,1.35161 -3.25662,0.22552 -0.20972,-0.42268 -0.29579,-0.33844 -0.19128,0.1875 0.10452,0.52586 0.92452,1.06422 1.82244,1.19631 2.65071,0.38984 2.85888,-1.89745 0.41049,-4.50862 l -2.16038,-2.30408 2.06268,0.36985 c 1.13451,0.20335 2.06268,0.079 2.06268,-0.27627 0,-0.3553 -1.01275,-0.64617 -2.25043,-0.64617 -1.23768,0 -2.25043,0.27867 -2.25018,0.61945 z m 6.34521,0.18062 c -0.27195,0.43983 -0.29187,1.00246 -0.0443,1.24986 0.2476,0.24755 0.45023,0.0563 0.45023,-0.42483 0,-0.48123 0.67516,-0.87501 1.50016,-0.87501 1.79692,0 1.99232,1.90032 0.29296,2.85101 -1.10972,0.62082 -1.10972,0.71293 0,1.13883 0.66386,0.25476 1.20742,0.81146 1.20742,1.23664 0,1.00425 -2.75899,1.00817 -3.25661,0.005 -0.20972,-0.42269 -0.29427,-0.33844 -0.18788,0.1875 0.25226,1.247 2.63212,1.6936 3.64268,0.68329 0.55158,-0.55156 0.53299,-1.0967 -0.0618,-1.8132 -0.62267,-0.75006 -0.62777,-1.24736 -0.0186,-1.8564 0.45752,-0.45732 0.62886,-1.36053 0.3806,-2.00705 -0.51148,-1.33268 -3.15563,-1.58687 -3.90462,-0.37557 z m -122.24362,21.70714 c -0.28652,0.46339 -0.31838,1.0453 -0.0708,1.29305 0.2476,0.24755 0.45023,0.0563 0.45023,-0.42483 0,-0.48123 0.67517,-0.875 1.50017,-0.875 1.11664,0 1.50016,0.50015 1.50016,1.95636 0,1.71217 -0.23398,1.89745 -1.8753,1.48583 -1.62849,-0.40876 -1.87529,-0.22205 -1.87529,1.41872 0,1.65469 0.30289,1.87532 2.43781,1.77679 2.26902,-0.1046 2.2949,-0.13401 0.37513,-0.42483 -2.46625,-0.37342 -2.79107,-2.23268 -0.37513,-2.14736 1.38861,0.049 1.68791,-0.33947 1.68791,-2.19055 0,-1.73288 -0.37148,-2.30301 -1.61682,-2.48044 -0.88953,-0.12671 -1.8516,0.14887 -2.13806,0.61226 z m 115.89841,-0.13774 c 0,0.34058 0.84396,1.41193 1.8753,2.38083 1.03134,0.9689 1.8753,2.20876 1.8753,2.75568 0,1.16489 -2.69811,1.3516 -3.25662,0.22552 -0.20972,-0.42269 -0.29579,-0.33844 -0.19128,0.1875 0.10452,0.52586 0.92452,1.06422 1.82244,1.19631 2.65071,0.38984 2.85888,-1.89746 0.41049,-4.50863 l -2.16038,-2.30407 2.06268,0.36985 c 1.13451,0.20335 2.06268,0.079 2.06268,-0.27627 0,-0.3553 -1.01275,-0.64617 -2.25043,-0.64617 -1.23768,0 -2.25043,0.27867 -2.25018,0.61945 z m 7.98008,0.50586 c 0.2734,0.71222 -0.0104,1.12491 -0.7736,1.12491 -1.6212,0 -1.51803,1.24093 0.29481,3.54537 l 1.50016,1.90709 v -2.3512 c 0,-1.37481 0.38935,-2.35584 0.93765,-2.36263 0.62704,-0.008 0.5647,-0.25615 -0.18753,-0.75005 -0.99999,-0.65653 -0.99999,-0.82075 0,-1.47691 0.91614,-0.60155 0.81625,-0.74078 -0.53918,-0.75006 -1.17352,-0.008 -1.53699,0.32027 -1.23231,1.11348 z m 0.27126,3.04414 c 0,0.64296 -0.33756,0.96069 -0.75026,0.70579 -0.41269,-0.25494 -0.75027,-0.78111 -0.75027,-1.16917 0,-0.38806 0.33756,-0.70579 0.75027,-0.70579 0.41268,0 0.75026,0.52622 0.75026,1.16917 z m -122.54139,18.70573 c 0.27341,0.71222 -0.0103,1.12491 -0.7736,1.12491 -1.62119,0 -1.51802,1.24093 0.29481,3.54537 l 1.50016,1.90709 v -2.3512 c 0,-1.37481 0.38935,-2.35584 0.93765,-2.36263 0.62704,-0.008 0.56471,-0.25615 -0.18753,-0.75005 -0.99999,-0.65653 -0.99999,-0.82075 0,-1.47691 0.91614,-0.60155 0.81625,-0.74078 -0.53918,-0.75006 -1.17352,-0.008 -1.53699,0.32026 -1.23231,1.11348 z m 0.27127,3.04414 c 0,0.64296 -0.33756,0.96069 -0.75027,0.70579 -0.41268,-0.25494 -0.75026,-0.78112 -0.75026,-1.16917 0,-0.38806 0.33755,-0.70579 0.75026,-0.70579 0.41268,0 0.75027,0.52621 0.75027,1.16917 z m 114.01876,-3.55001 c 0,0.34059 0.84396,1.41194 1.8753,2.38084 1.03134,0.96889 1.8753,2.20876 1.8753,2.75568 0,1.16489 -2.69811,1.3516 -3.25662,0.22552 -0.20971,-0.42269 -0.29579,-0.33844 -0.19128,0.1875 0.10452,0.52586 0.92453,1.06422 1.82244,1.19631 2.65071,0.38984 2.85888,-1.89746 0.41049,-4.50863 l -2.16038,-2.30408 2.06268,0.36986 c 1.13451,0.20334 2.06268,0.079 2.06268,-0.27628 0,-0.35529 -1.01275,-0.64617 -2.25043,-0.64617 -1.23768,0 -2.25043,0.27868 -2.25018,0.61945 z m 6.37171,0.13775 c -0.28652,0.46338 -0.31837,1.04529 -0.0708,1.29305 0.2476,0.24755 0.45023,0.0563 0.45023,-0.42483 0,-0.48123 0.67517,-0.87501 1.50017,-0.87501 1.11665,0 1.50016,0.50016 1.50016,1.95636 0,1.71218 -0.23398,1.89746 -1.87529,1.48584 -1.62849,-0.40877 -1.8753,-0.22205 -1.8753,1.41872 0,1.65469 0.30289,1.87532 2.43781,1.77679 2.26902,-0.1046 2.29491,-0.13401 0.37513,-0.42483 -2.46624,-0.37343 -2.79107,-2.23268 -0.37513,-2.14736 1.38861,0.049 1.68792,-0.33947 1.68792,-2.19055 0,-1.73288 -0.37149,-2.30301 -1.61683,-2.48044 -0.88952,-0.12671 -1.8516,0.14887 -2.13806,0.61226 z m -122.29678,21.79271 c -0.27194,0.43982 -0.29187,1.00245 -0.0443,1.24985 0.2476,0.24755 0.45023,0.0563 0.45023,-0.42483 0,-0.48123 0.67517,-0.875 1.50017,-0.875 1.79691,0 1.99232,1.90031 0.29295,2.851 -1.10972,0.62082 -1.10972,0.71293 0,1.13883 0.66387,0.25476 1.20743,0.81146 1.20743,1.23665 0,1.00424 -2.75899,1.00816 -3.25662,0.005 -0.20971,-0.42269 -0.29426,-0.33844 -0.18787,0.1875 0.25226,1.247 2.63212,1.69361 3.64268,0.6833 0.55158,-0.55157 0.53299,-1.09671 -0.0618,-1.81321 -0.62267,-0.75005 -0.62777,-1.24736 -0.0186,-1.8564 0.45752,-0.45731 0.62887,-1.36052 0.3806,-2.00705 -0.51148,-1.33268 -3.15563,-1.58687 -3.90462,-0.37557 z m 115.92492,-0.18063 c 0,0.34059 0.84396,1.41193 1.8753,2.38083 1.03134,0.9689 1.87529,2.20876 1.87529,2.75568 0,1.1649 -2.6981,1.35161 -3.25661,0.22552 -0.20972,-0.42269 -0.29579,-0.33843 -0.19128,0.1875 0.10451,0.52586 0.92452,1.06422 1.82243,1.19631 2.65072,0.38984 2.85888,-1.89746 0.4105,-4.50863 l -2.16038,-2.30407 2.06268,0.36985 c 1.13451,0.20334 2.06268,0.079 2.06268,-0.27627 0,-0.3553 -1.01275,-0.64617 -2.25043,-0.64617 -1.23768,0 -2.25043,0.27867 -2.25018,0.61945 z m 6.5327,-0.15091 c -0.86437,0.8643 -0.60663,5.15679 0.36857,6.13165 1.05175,1.05137 2.85049,1.19881 2.85049,0.23334 0,-0.36664 -0.57783,-0.61976 -1.28398,-0.56264 -0.70615,0.0573 -1.39517,-0.43054 -1.53115,-1.08385 -0.17124,-0.82253 0.28119,-1.16846 1.47136,-1.12491 2.33902,0.0856 2.51474,-3.57321 0.18767,-3.90625 -0.84214,-0.12053 -1.77031,0.0201 -2.06296,0.31266 z m 3.21906,1.83677 c 0,1.92208 -2.48265,1.70396 -2.85924,-0.2511 -0.17335,-0.9 0.2306,-1.30377 1.30403,-1.30377 1.07363,0 1.55521,0.4816 1.55521,1.55487 z m -126.0209,20.06415 c 0,0.34059 0.84396,1.41193 1.8753,2.38083 1.03134,0.9689 1.8753,2.20876 1.8753,2.75568 0,1.16489 -2.69811,1.3516 -3.25662,0.22551 -0.20972,-0.42268 -0.2958,-0.33843 -0.19128,0.1875 0.10452,0.52587 0.92452,1.06422 1.82244,1.19631 2.65071,0.38985 2.85887,-1.89745 0.41049,-4.50859 l -2.16038,-2.30407 2.06268,0.36985 c 1.13451,0.20334 2.06268,0.079 2.06268,-0.27627 0,-0.35531 -1.01275,-0.64617 -2.25043,-0.64617 -1.23768,0 -2.25043,0.27867 -2.25018,0.61942 z m 116.26914,0 c 0,0.34059 0.84396,1.41193 1.8753,2.38083 1.03134,0.9689 1.87529,2.20876 1.87529,2.75568 0,1.16489 -2.6981,1.3516 -3.25661,0.22551 -0.20972,-0.42268 -0.29579,-0.33843 -0.19128,0.1875 0.10451,0.52587 0.92452,1.06422 1.82243,1.19631 2.65072,0.38985 2.85888,-1.89745 0.4105,-4.50859 l -2.16038,-2.30407 2.06268,0.36985 c 1.13451,0.20334 2.06268,0.079 2.06268,-0.27627 0,-0.35531 -1.01275,-0.64617 -2.25043,-0.64617 -1.23768,0 -2.25043,0.27867 -2.25018,0.61942 z m 7.79094,1.25556 c 0.13653,1.23737 0.50091,2.84065 0.80969,3.56251 0.39409,0.92141 0.22077,1.31233 -0.58148,1.31233 -0.6285,0 -1.31314,-0.42197 -1.5213,-0.93748 -0.22603,-0.56014 -0.40211,-0.40912 -0.43748,0.37485 -0.044,0.97461 0.52679,1.31233 2.21762,1.31233 2.12976,0 2.21835,-0.10902 1.37002,-1.68754 -0.49872,-0.9282 -1.17644,-2.69999 -1.506,-3.9375 l -0.59897,-2.25017 z m -123.49749,20.37171 c 1.19868,0.48373 1.23076,5.2806 0.038,5.67816 -0.56288,0.18755 -0.42216,0.48302 0.37513,0.78897 1.0802,0.41447 1.27487,-0.0129 1.27487,-2.79995 0,-1.92959 0.38753,-3.44541 0.93765,-3.66725 0.51585,-0.20806 -0.075,-0.37842 -1.31278,-0.37842 -1.23768,0 -1.82827,0.17023 -1.31283,0.37849 z m 115.70655,0.12255 c 0,0.3406 0.84396,1.41194 1.8753,2.38084 1.03134,0.9689 1.87529,2.20876 1.87529,2.75568 0,1.16489 -2.6981,1.3516 -3.25661,0.22551 -0.20972,-0.42268 -0.29579,-0.33843 -0.19128,0.1875 0.10451,0.52586 0.92452,1.06422 1.82243,1.19631 2.65072,0.38984 2.85888,-1.89745 0.4105,-4.50859 l -2.16038,-2.30408 2.06268,0.36986 c 1.13451,0.20335 2.06268,0.079 2.06268,-0.27627 0,-0.3553 -1.01275,-0.64617 -2.25043,-0.64617 -1.23768,0 -2.25043,0.27867 -2.25018,0.61941 z m 6.53733,-0.0996 c -0.19544,0.33296 -0.31168,1.95529 -0.25832,3.60538 0.0865,2.67428 0.30074,2.99987 1.97227,2.99987 1.72255,0 1.8753,-0.275 1.8753,-3.37508 0,-2.88492 -0.23477,-3.40828 -1.61682,-3.60538 -0.88953,-0.12671 -1.77687,0.042 -1.97227,0.37485 z m 3.07142,1.54295 c -0.13905,0.72186 -0.7499,1.31233 -1.35763,1.31233 -0.60772,0 -1.21836,-0.59047 -1.35762,-1.31233 -0.17737,-0.92106 0.22765,-1.31233 1.35762,-1.31233 1.12978,0 1.5348,0.39163 1.35763,1.31233 z m 0.1428,3.5625 c 0,0.62511 -0.66678,1.12491 -1.50017,1.12491 -0.83338,0 -1.50016,-0.50016 -1.50016,-1.12491 0,-0.6251 0.66678,-1.1249 1.50016,-1.1249 0.83339,0 1.50017,0.50015 1.50017,1.1249 z m -113.71498,2.81245 c -1.42761,1.68575 -1.42725,1.68611 0.13034,0.37485 2.01128,-1.69289 4.26065,-1.67005 5.82567,0.0591 1.60041,1.76822 1.57599,3.73821 -0.0713,5.6944 -1.31132,1.55759 -1.31096,1.55759 0.37513,0.13031 2.16731,-1.83462 2.14872,-4.25183 -0.0483,-6.31551 -2.2271,-2.09202 -4.40874,-2.07203 -6.21157,0.0569 z m -1.74478,3.25013 c 0.036,0.87358 0.21374,1.05136 0.45315,0.45303 0.21669,-0.54157 0.19004,-1.18845 -0.0592,-1.43764 -0.24927,-0.24922 -0.42654,0.19375 -0.39409,0.98425 z m 2.42651,3.50003 c 0.78709,0.72185 1.98467,1.29127 2.66092,1.26485 0.77725,-0.03 0.55486,-0.31702 -0.60517,-0.7804 -1.0091,-0.40306 -2.20668,-0.97212 -2.66092,-1.26486 -0.45424,-0.29273 -0.18186,0.0584 0.60517,0.78041 z m -16.73801,-295.6875 c 0,1.38873 -0.50017,1.50011 -6.7511,1.50011 -6.25104,0 -6.7511,-0.11111 -6.7511,-1.50011 0,-1.38873 0.50017,-1.50012 6.7511,-1.50012 6.25104,0 6.7511,0.11112 6.7511,1.50012 z m 159.7763,2.25017 c 0,1.40015 -0.50018,1.50011 -7.50122,1.50011 -7.00116,0 -7.50123,-0.1 -7.50123,-1.50011 0,-1.40016 0.50018,-1.50012 7.50123,-1.50012 7.00115,0 7.50122,0.1 7.50122,1.50012 z m -159.7763,19.49998 c 0,1.38873 -0.50017,1.50012 -6.7511,1.50012 -6.25104,0 -6.7511,-0.11112 -6.7511,-1.50012 0,-1.38873 0.50017,-1.50011 6.7511,-1.50011 6.25104,0 6.7511,0.11111 6.7511,1.50011 z m 159.7763,2.25017 c 0,1.40016 -0.50018,1.50012 -7.50122,1.50012 -7.00116,0 -7.50123,-0.1 -7.50123,-1.50012 0,-1.40015 0.50018,-1.50011 7.50123,-1.50011 7.00115,0 7.50122,0.1 7.50122,1.50011 z m -159.7763,19.49998 c 0,1.38873 -0.50017,1.50012 -6.7511,1.50012 -6.25104,0 -6.7511,-0.11111 -6.7511,-1.50012 0,-1.38873 0.50017,-1.50011 6.7511,-1.50011 6.25104,0 6.7511,0.11111 6.7511,1.50011 z m 159.7763,2.25018 c 0,1.40015 -0.50018,1.50011 -7.50122,1.50011 -7.00116,0 -7.50123,-0.1 -7.50123,-1.50011 0,-1.40016 0.50018,-1.50012 7.50123,-1.50012 7.00115,0 7.50122,0.1 7.50122,1.50012 z m -159.7763,19.49998 c 0,1.38873 -0.50017,1.50011 -6.7511,1.50011 -6.25104,0 -6.7511,-0.11111 -6.7511,-1.50011 0,-1.38873 0.50017,-1.50012 6.7511,-1.50012 6.25104,0 6.7511,0.11111 6.7511,1.50012 z m 159.7763,2.25017 c 0,1.40015 -0.50018,1.50011 -7.50122,1.50011 -7.00116,0 -7.50123,-0.1 -7.50123,-1.50011 0,-1.40015 0.50018,-1.50011 7.50123,-1.50011 7.00115,0 7.50122,0.1 7.50122,1.50011 z m -159.7763,19.49998 c 0,1.38873 -0.50017,1.50012 -6.7511,1.50012 -6.25104,0 -6.7511,-0.11112 -6.7511,-1.50012 0,-1.38873 0.50017,-1.50011 6.7511,-1.50011 6.25104,0 6.7511,0.11111 6.7511,1.50011 z m 159.7763,2.25017 c 0,1.40016 -0.50018,1.50012 -7.50122,1.50012 -7.00116,0 -7.50123,-0.1 -7.50123,-1.50012 0,-1.40015 0.50018,-1.50011 7.50123,-1.50011 7.00115,0 7.50122,0.1 7.50122,1.50011 z m -159.7763,19.49999 c 0,1.38873 -0.50017,1.50011 -6.7511,1.50011 -6.25104,0 -6.7511,-0.11111 -6.7511,-1.50011 0,-1.38873 0.50017,-1.50012 6.7511,-1.50012 6.25104,0 6.7511,0.11111 6.7511,1.50012 z m 159.7763,2.25017 c 0,1.40015 -0.50018,1.50011 -7.50122,1.50011 -7.00116,0 -7.50123,-0.1 -7.50123,-1.50011 0,-1.40016 0.50018,-1.50012 7.50123,-1.50012 7.00115,0 7.50122,0.1 7.50122,1.50012 z m -159.7763,19.49998 c 0,1.38873 -0.50017,1.50011 -6.7511,1.50011 -6.25104,0 -6.7511,-0.11111 -6.7511,-1.50011 0,-1.38873 0.50017,-1.50011 6.7511,-1.50011 6.25104,0 6.7511,0.11111 6.7511,1.50011 z m 159.7763,2.25017 c 0,1.40015 -0.50018,1.50011 -7.50122,1.50011 -7.00116,0 -7.50123,-0.1 -7.50123,-1.50011 0,-1.40015 0.50018,-1.50011 7.50123,-1.50011 7.00115,0 7.50122,0.1 7.50122,1.50011 z m -159.7763,19.50002 c 0,1.38873 -0.50017,1.50011 -6.7511,1.50011 -6.25104,0 -6.7511,-0.11111 -6.7511,-1.50011 0,-1.38873 0.50017,-1.50012 6.7511,-1.50012 6.25104,0 6.7511,0.11112 6.7511,1.50012 z m 159.7763,2.25017 c 0,1.40015 -0.50018,1.50011 -7.50122,1.50011 -7.00116,0 -7.50123,-0.1 -7.50123,-1.50011 0,-1.40015 0.50018,-1.50011 7.50123,-1.50011 7.00115,0 7.50122,0.1 7.50122,1.50011 z m -159.7763,19.49998 c 0,1.38873 -0.50017,1.50012 -6.7511,1.50012 -6.25104,0 -6.7511,-0.11112 -6.7511,-1.50012 0,-1.38873 0.50017,-1.50011 6.7511,-1.50011 6.25104,0 6.7511,0.11111 6.7511,1.50011 z m 159.7763,2.25017 c 0,1.40016 -0.50018,1.50012 -7.50122,1.50012 -7.00116,0 -7.50123,-0.1 -7.50123,-1.50012 0,-1.40015 0.50018,-1.50011 7.50123,-1.50011 7.00115,0 7.50122,0.1 7.50122,1.50011 z m -159.7763,19.49999 c 0,1.38873 -0.50017,1.50011 -6.7511,1.50011 -6.25104,0 -6.7511,-0.11111 -6.7511,-1.50011 0,-1.38873 0.50017,-1.50012 6.7511,-1.50012 6.25104,0 6.7511,0.11111 6.7511,1.50012 z m 159.7763,2.25017 c 0,1.40015 -0.50018,1.50011 -7.50122,1.50011 -7.00116,0 -7.50123,-0.1 -7.50123,-1.50011 0,-1.40016 0.50018,-1.50012 7.50123,-1.50012 7.00115,0 7.50122,0.1 7.50122,1.50012 z m -159.7763,19.49998 c 0,1.38873 -0.50017,1.50011 -6.7511,1.50011 -6.25104,0 -6.7511,-0.11111 -6.7511,-1.50011 0,-1.38873 0.50017,-1.50011 6.7511,-1.50011 6.25104,0 6.7511,0.11111 6.7511,1.50011 z m 159.7763,2.25017 c 0,1.40015 -0.50018,1.50011 -7.50122,1.50011 -7.00116,0 -7.50123,-0.1 -7.50123,-1.50011 0,-1.40015 0.50018,-1.50011 7.50123,-1.50011 7.00115,0 7.50122,0.1 7.50122,1.50011 z m -159.7763,19.49998 c 0,1.38873 -0.50017,1.50012 -6.7511,1.50012 -6.25104,0 -6.7511,-0.11111 -6.7511,-1.50012 0,-1.38873 0.50017,-1.50011 6.7511,-1.50011 6.25104,0 6.7511,0.11111 6.7511,1.50011 z m 159.7763,2.25017 c 0,1.40016 -0.50018,1.50012 -7.50122,1.50012 -7.00116,0 -7.50123,-0.1 -7.50123,-1.50012 0,-1.40015 0.50018,-1.50011 7.50123,-1.50011 7.00115,0 7.50122,0.1 7.50122,1.50011 z m -159.7763,19.49999 c 0,1.38873 -0.50017,1.50011 -6.7511,1.50011 -6.25104,0 -6.7511,-0.11111 -6.7511,-1.50011 0,-1.38873 0.50017,-1.50012 6.7511,-1.50012 6.25104,0 6.7511,0.11112 6.7511,1.50012 z m 159.7763,2.25017 c 0,1.40015 -0.50018,1.50011 -7.50122,1.50011 -7.00116,0 -7.50123,-0.1 -7.50123,-1.50011 0,-1.40016 0.50018,-1.50012 7.50123,-1.50012 7.00115,0 7.50122,0.10001 7.50122,1.50012 z m -159.7763,19.50002 c 0,1.39479 -0.50017,1.50011 -7.12616,1.50011 -6.6261,0 -7.12616,-0.10526 -7.12616,-1.50011 0,-1.3948 0.50017,-1.50012 7.12616,-1.50012 6.6261,0 7.12616,0.10527 7.12616,1.50012 z m 159.02618,2.25017 c 0,1.3948 -0.50018,1.50011 -7.12617,1.50011 -6.62609,0 -7.12616,-0.10526 -7.12616,-1.50011 0,-1.3948 0.50018,-1.50012 7.12616,-1.50012 6.6261,0 7.12617,0.10527 7.12617,1.50012 z"
       id="path730" /></g></svg>
